HIERARCHY
ROOT Hips
{
	OFFSET 0.000000 0.000000 0.000000
	CHANNELS 6 Xposition Yposition Zposition Xrotation Yrotation Zrotation
	JOINT LeftUpLeg_virtual
	{
		OFFSET 0.000000 0.000000 0.000000
		CHANNELS 3 Xrotation Yrotation Zrotation
		JOINT LeftUpLeg
		{
			OFFSET 13.026900 -6.336304 -1.092800
			CHANNELS 3 Xrotation Yrotation Zrotation
			JOINT LeftLeg
			{
				OFFSET 0.524474 -46.096886 9.782700
				CHANNELS 3 Xrotation Yrotation Zrotation
				JOINT LeftFoot
				{
					OFFSET -0.524474 -53.427422 -12.948200
					CHANNELS 3 Xrotation Yrotation Zrotation
					JOINT LeftToeBase
					{
						OFFSET 0.192200 -14.009700 16.364100
						CHANNELS 3 Xrotation Yrotation Zrotation
						JOINT LeftToe_End
						{
							OFFSET -1.784700 -0.561700 9.474800
							CHANNELS 3 Xrotation Yrotation Zrotation
							End Site
							{
								OFFSET 0 0 0
							}
						}
					}
				}
			}
		}
	}
	JOINT RightUpLeg_virtual
	{
		OFFSET 0.000000 0.000000 0.000000
		CHANNELS 3 Xrotation Yrotation Zrotation
		JOINT RightUpLeg
		{
			OFFSET -12.883000 -6.336304 -1.092800
			CHANNELS 3 Xrotation Yrotation Zrotation
			JOINT RightLeg
			{
				OFFSET -0.524587 -46.096825 9.782800
				CHANNELS 3 Xrotation Yrotation Zrotation
				JOINT RightFoot
				{
					OFFSET 0.524587 -53.427383 -12.948300
					CHANNELS 3 Xrotation Yrotation Zrotation
					JOINT RightToeBase
					{
						OFFSET -0.192200 -14.009700 16.364100
						CHANNELS 3 Xrotation Yrotation Zrotation
						JOINT RightToe_End
						{
							OFFSET 1.784700 -0.561700 9.474800
							CHANNELS 3 Xrotation Yrotation Zrotation
							End Site
							{
								OFFSET 0 0 0
							}
						}
					}
				}
			}
		}
	}
	JOINT Spine_virtual
	{
		OFFSET 0.000000 0.000000 0.000000
		CHANNELS 3 Xrotation Yrotation Zrotation
		JOINT Spine
		{
			OFFSET 0.072000 7.257294 -0.789700
			CHANNELS 3 Xrotation Yrotation Zrotation
			JOINT Spine1
			{
				OFFSET 0.000000 12.508769 -0.658067
				CHANNELS 3 Xrotation Yrotation Zrotation
				JOINT Spine1_split
				{
					OFFSET 0.000000 12.508769 -0.658067
					CHANNELS 3 Xrotation Yrotation Zrotation
					JOINT Spine2
					{
						OFFSET 0.000000 12.508769 -0.658067
						CHANNELS 3 Xrotation Yrotation Zrotation
						JOINT Neck_virtual
						{
							OFFSET 0.000000 0.000000 0.000000
							CHANNELS 3 Xrotation Yrotation Zrotation
							JOINT Neck
							{
								OFFSET 0.000000 14.033295 7.520400
								CHANNELS 3 Xrotation Yrotation Zrotation
								JOINT Head
								{
									OFFSET 0.000000 8.198502 5.703100
									CHANNELS 3 Xrotation Yrotation Zrotation
									JOINT HeadTop_End
									{
										OFFSET 0.000000 17.760803 13.332701
										CHANNELS 3 Xrotation Yrotation Zrotation
										End Site
										{
											OFFSET 0 0 0
										}
									}
								}
							}
						}
						JOINT LeftShoulder_virtual
						{
							OFFSET 0.000000 0.000000 0.000000
							CHANNELS 3 Xrotation Yrotation Zrotation
							JOINT LeftShoulder
							{
								OFFSET 6.292450 5.785301 -0.669000
								CHANNELS 3 Xrotation Yrotation Zrotation
								JOINT LeftShoulder_split
								{
									OFFSET 6.292450 5.785301 -0.669000
									CHANNELS 3 Xrotation Yrotation Zrotation
									JOINT LeftArm
									{
										OFFSET 13.907140 -6.093903 1.965100
										CHANNELS 3 Xrotation Yrotation Zrotation
										JOINT LeftForeArm
										{
											OFFSET 34.140198 0.000000 0.000000
											CHANNELS 3 Xrotation Yrotation Zrotation
											JOINT LeftHand
											{
												OFFSET 40.960209 0.000000 0.000000
												CHANNELS 3 Xrotation Yrotation Zrotation
												End Site
												{
													OFFSET 0 0 0
												}
											}
										}
									}
								}
							}
						}
						JOINT RightShoulder_virtual
						{
							OFFSET 0.000000 0.000000 0.000000
							CHANNELS 3 Xrotation Yrotation Zrotation
							JOINT RightShoulder
							{
								OFFSET -6.292450 5.785301 -0.669000
								CHANNELS 3 Xrotation Yrotation Zrotation
								JOINT RightShoulder_split
								{
									OFFSET -6.292450 5.785301 -0.669000
									CHANNELS 3 Xrotation Yrotation Zrotation
									JOINT RightArm
									{
										OFFSET -13.907140 -6.093903 1.965100
										CHANNELS 3 Xrotation Yrotation Zrotation
										JOINT RightForeArm
										{
											OFFSET -34.140198 0.000000 0.000000
											CHANNELS 3 Xrotation Yrotation Zrotation
											JOINT RightHand
											{
												OFFSET -40.960209 0.000000 0.000000
												CHANNELS 3 Xrotation Yrotation Zrotation
												End Site
												{
													OFFSET 0 0 0
												}
											}
										}
									}
								}
							}
						}
					}
				}
			}
		}
	}
}
MOTION
Frames: 5
Frame Time: 0.03333333
-0.568210 96.015465 0.666725 0.000000 0.000000 0.000000 8.148050 -11.194229 3.440420 -55.244021 3.218715 21.887848 47.224430 2.888996 5.930801 3.145670 0.861576 -19.945535 0.000005 -0.000006 -0.000010 0.000000 0.000000 0.000000 8.148050 -11.194229 3.440420 -34.769645 2.497748 -30.502348 50.344573 -0.228809 -1.348689 -17.242652 -5.768057 25.970500 -0.002746 -0.000005 0.000002 0.000000 0.000000 0.000000 8.148050 -11.194229 3.440420 8.217771 1.910700 -1.854759 6.501517 1.669130 -0.600553 0.000000 0.000000 0.000000 0.000000 0.000000 0.000000 6.503123 1.665277 -0.587177 -1.740215 -0.081393 0.346733 -18.113890 -0.499811 1.304438 0.000000 0.000000 0.000000 6.503123 1.665277 -0.587177 2.609678 -14.773716 -9.661129 0.000000 0.000000 0.000000 -25.061851 -6.032400 -45.944982 -179.999978 -55.274283 -179.999978 0.000000 0.000000 0.000000 6.503123 1.665277 -0.587177 1.602763 8.845884 9.965478 0.000000 0.000000 0.000000 3.934433 4.254979 41.144377 0.009131 89.362343 -0.009063 0.000000 0.000000 0.000000 
-0.388973 96.159531 0.815186 0.000000 0.000000 0.000000 8.232668 -11.184951 3.267794 -55.304991 3.256253 21.866955 47.228053 2.961271 6.041339 3.057458 0.864245 -19.851364 0.000078 -0.000001 0.000001 0.000000 0.000000 0.000000 8.232668 -11.184951 3.267794 -34.566016 2.308949 -30.439674 49.887592 -0.243830 -1.308653 -16.998328 -5.737622 26.083294 -0.059022 -0.000004 -0.000008 0.000000 0.000000 0.000000 8.232668 -11.184951 3.267794 8.171048 1.907772 -1.883428 6.469515 1.666599 -0.622082 0.000000 0.000000 0.000000 0.000000 0.000000 0.000000 6.471169 1.662710 -0.608367 -1.660627 -0.094397 0.408574 -18.088766 -0.528535 1.378605 0.000000 0.000000 0.000000 6.471169 1.662710 -0.608367 2.606491 -14.776937 -9.549423 0.000000 0.000000 0.000000 -25.079263 -5.936106 -46.237454 -179.999950 -55.052400 -179.999950 0.000000 0.000000 0.000000 6.471169 1.662710 -0.608367 1.612936 8.972300 9.892410 0.000000 0.000000 0.000000 4.280590 4.276509 41.166612 0.010402 89.494097 -0.010457 0.000000 0.000000 0.000000 
-0.237862 96.194046 0.938587 0.000000 0.000000 0.000000 8.279934 -11.275703 3.162116 -55.276786 3.034650 21.937398 47.386514 3.182694 5.909482 2.919473 0.883202 -19.827448 0.000074 0.000002 0.000003 0.000000 0.000000 0.000000 8.279934 -11.275703 3.162116 -34.489880 2.243694 -30.407002 49.651398 -0.152333 -1.296722 -16.844216 -5.725259 26.178874 -0.101895 0.000002 -0.000003 0.000000 0.000000 0.000000 8.279934 -11.275703 3.162116 8.130201 1.919629 -1.924538 6.441681 1.676749 -0.649059 0.000000 0.000000 0.000000 0.000000 0.000000 0.000000 6.443582 1.672274 -0.634775 -1.530192 -0.088176 0.425716 -18.010338 -0.506130 1.446724 0.000000 0.000000 0.000000 6.443582 1.672274 -0.634775 2.608809 -14.838620 -9.394289 0.000000 0.000000 0.000000 -25.202300 -5.748873 -46.782243 179.999964 -55.053726 179.999964 0.000000 0.000000 0.000000 6.443582 1.672274 -0.634775 1.632841 9.221985 9.735139 0.000000 0.000000 0.000000 4.785609 4.318988 40.998388 0.013715 89.635229 -0.013290 0.000000 0.000000 0.000000 
-0.086454 96.192101 1.028839 0.000000 0.000000 0.000000 8.308211 -11.357624 3.069339 -55.274505 2.814510 21.963216 47.573784 3.388155 5.830164 2.787145 0.902005 -19.829113 0.000078 -0.000001 0.000000 0.000000 0.000000 0.000000 8.308211 -11.357624 3.069339 -34.498883 2.128737 -30.371054 49.492681 -0.020350 -1.376894 -16.700420 -5.713893 26.280804 -0.144891 -0.000021 0.000006 0.000000 0.000000 0.000000 8.308211 -11.357624 3.069339 8.106133 1.947388 -1.973987 6.424816 1.700721 -0.678535 0.000000 0.000000 0.000000 0.000000 0.000000 0.000000 6.426777 1.696291 -0.663807 -1.399316 -0.079353 0.400461 -17.882644 -0.522032 1.533366 0.000000 0.000000 0.000000 6.426777 1.696291 -0.663807 2.616661 -14.944701 -9.230453 0.000000 0.000000 0.000000 -25.384658 -5.564491 -47.444502 -179.999991 -55.224986 179.999991 0.000000 0.000000 0.000000 6.426777 1.696291 -0.663807 1.659451 9.536461 9.550711 0.000000 0.000000 0.000000 5.371344 4.326788 40.644717 0.036802 89.787857 -0.037441 0.000000 0.000000 0.000000 
0.051831 96.163834 1.086384 0.000000 0.000000 0.000000 8.364826 -11.418411 2.994784 -55.381021 2.704655 21.911325 47.754470 3.557390 5.926111 2.687592 0.914177 -19.863939 0.000073 0.000002 -0.000003 0.000000 0.000000 0.000000 8.364826 -11.418411 2.994784 -34.562373 2.058557 -30.357462 49.398196 0.085354 -1.420270 -16.586534 -5.704381 26.357932 -0.177417 0.000012 0.000004 0.000000 0.000000 0.000000 8.364826 -11.418411 2.994784 8.102659 1.981062 -2.025323 6.421328 1.731230 -0.707043 0.000000 0.000000 0.000000 0.000000 0.000000 0.000000 6.423005 1.728191 -0.692275 -1.315997 -0.078989 0.336014 -17.734096 -0.628751 1.638347 0.000000 0.000000 0.000000 6.423005 1.728191 -0.692275 2.625891 -15.049659 -9.100766 0.000000 0.000000 0.000000 -25.549166 -5.460090 -48.042024 -179.999964 -55.477371 -179.999978 0.000000 0.000000 0.000000 6.423005 1.728191 -0.692275 1.686770 9.841475 9.393908 0.000000 0.000000 0.000000 5.934950 4.285738 40.135913 -0.023507 89.931475 0.025426 0.000000 0.000000 0.000000 
